<svg width="77" height="79" fill="none" xmlns="http://www.w3.org/2000/svg"><path d="M26.668 74l-23 3-3.5-16.5 17.5-3 9 16.5zm50-1.5l-21 2.5-3.5-16.5 15.5-2.5 9 16.5zm-49.474-8.62l-1.026.12 8.5 15 16.5-1L47.7 61.655a95.66 95.66 0 01-2.195 1.926c-5.304 4.514-12.906 4.614-18.312.3z" fill="#9EA3B5"/><path fill-rule="evenodd" clip-rule="evenodd" d="M42.265 59.773c7.685-6.54 19.903-19.132 19.903-33.091 0-6.944-2.74-13.603-7.615-18.514A25.909 25.909 0 0036.168.5a25.909 25.909 0 00-18.385 7.668 26.275 26.275 0 00-7.615 18.514c0 13.96 12.218 26.552 19.903 33.091 3.556 3.027 8.638 3.027 12.194 0zM48.168 26.5c0 6.627-5.373 12-12 12-6.628 0-12-5.373-12-12s5.372-12 12-12c6.627 0 12 5.373 12 12z" fill="#9EA3B5"/></svg>