<svg width="80" height="81" fill="none" xmlns="http://www.w3.org/2000/svg"><path fill-rule="evenodd" clip-rule="evenodd" d="M56.81 3.591c-.002-1.857-1.401-3.25-3.17-3.246-1.81.004-3.168 1.397-3.164 3.255l.005 2.955-24.437.034-.004-2.955C26.035 1.776 24.677.383 22.867.387c-1.81 0-3.167 1.397-3.163 3.255l.004 3.167C8.23 7.877.916 15.785.932 28.024l.045 31.22c.017 13.296 8.335 21.647 21.421 21.63l29.032-.038C45.758 77.278 42 71.067 42 64c0-4.239 1.352-8.17 3.658-11.405a1.808 1.808 0 01-.76-1.474v-5.862c0-1 .81-1.81 1.81-1.81h5.862c1 0 1.81.81 1.81 1.81v.371A20.873 20.873 0 0162.5 44c5.131 0 9.822 1.839 13.417 4.877l-.03-21.119c-.013-12.16-7.594-20.088-19.072-21l-.004-3.167zm-30.759 9.5l24.437-.034.004 3.42c0 1.816 1.362 3.251 3.172 3.247 1.769 0 3.163-1.44 3.163-3.255l-.004-3.251c8.063.709 12.556 5.471 12.733 14.549v1.477l-62.284.085-.004-1.313c-.013-9.158 4.426-13.937 12.448-14.752l.004 3.251c0 1.82 1.362 3.251 3.172 3.247 1.81 0 3.164-1.436 3.164-3.255l-.005-3.416zM10.416 45.259c0-1 .81-1.81 1.81-1.81h5.862c1 0 1.81.81 1.81 1.81v5.862c0 1-.81 1.81-1.81 1.81h-5.862c-1 0-1.81-.81-1.81-1.81v-5.862zm1.81 13.707c-1 0-1.81.81-1.81 1.81v5.862c0 1 .81 1.81 1.81 1.81h5.862c1 0 1.81-.81 1.81-1.81v-5.862c0-1-.81-1.81-1.81-1.81h-5.862zm15.431-13.707c0-1 .81-1.81 1.81-1.81h5.863c1 0 1.81.81 1.81 1.81v5.862c0 1-.81 1.81-1.81 1.81h-5.862c-1 0-1.81-.81-1.81-1.81v-5.862zm1.81 13.707c-1 0-1.81.81-1.81 1.81v5.862c0 1 .81 1.81 1.81 1.81h5.863c1 0 1.81-.81 1.81-1.81v-5.862c0-1-.81-1.81-1.81-1.81h-5.862z" fill="#9EA3B5"/><path fill-rule="evenodd" clip-rule="evenodd" d="M62.57 47.759c-9.285 0-16.81 7.333-16.81 16.38 0 9.045 7.525 16.378 16.81 16.378 9.284 0 16.81-7.333 16.81-16.379 0-9.046-7.526-16.38-16.81-16.38zm2.241 9.482a1.81 1.81 0 00-3.62 0v8.422c0 .715.42 1.363 1.072 1.654l4.31 1.922a1.81 1.81 0 101.475-3.306l-3.237-1.444V57.24z" fill="#9EA3B5"/></svg>