<svg width="89" height="78" fill="none" xmlns="http://www.w3.org/2000/svg"><path d="M75.62 30.24c0 19.195-17.948 34.756-40.086 34.756a45.868 45.868 0 01-3.208-.108c5.951 5.351 14.266 8.674 23.467 8.674a37.063 37.063 0 009.615-1.254c2.387 1.213 7.878 3.542 17.116 5.058.815.132 1.442-.721 1.118-1.484-1.45-3.427-2.76-7.993-3.157-12.158 5.024-5.042 8.067-11.642 8.067-18.856 0-9.857-5.674-18.553-14.316-23.719a30.474 30.474 0 011.385 9.09z" fill="#9EA3B5"/><path fill-rule="evenodd" clip-rule="evenodd" d="M71 30.473c0 16.83-15.895 30.473-35.5 30.473a40.942 40.942 0 01-10.42-1.332c-2.586 1.288-8.537 3.761-18.548 5.372-.883.139-1.562-.767-1.211-1.576 1.57-3.64 2.99-8.49 3.42-12.912C3.298 45.144 0 38.135 0 30.473 0 13.643 15.895 0 35.5 0S71 13.643 71 30.473zm-49.69-8.815a2.273 2.273 0 100 4.546h16.38a2.273 2.273 0 000-4.546H21.31zm0 15.518a2.273 2.273 0 000 4.545h29.31a2.273 2.273 0 100-4.545H21.31z" fill="#9EA3B5"/></svg>