<svg width="26" height="26" fill="none" xmlns="http://www.w3.org/2000/svg"><path d="M11.043 2.021c.616-1.895 3.298-1.895 3.913 0l1.623 4.995a2.057 2.057 0 001.957 1.421h5.252c1.993 0 2.821 2.55 1.209 3.722l-4.249 3.087a2.057 2.057 0 00-.747 2.3l1.623 4.995c.616 1.895-1.554 3.47-3.166 2.3l-4.249-3.087a2.057 2.057 0 00-2.418 0L7.54 24.84c-1.611 1.17-3.78-.405-3.165-2.3L6 17.546a2.057 2.057 0 00-.747-2.3l-4.249-3.087C-.608 10.988.22 8.437 2.214 8.437h5.251c.891 0 1.681-.573 1.957-1.421l1.623-4.995z" fill="#E3E6F0"/></svg>