<svg width="40" height="40" fill="none" xmlns="http://www.w3.org/2000/svg"><path d="M33.353 7.362l-3.979-3.81c-1.464-1.402-3.848-1.402-5.312 0L18.75 8.637l3.98 3.81 3.979-3.81L33.353 15A5.299 5.299 0 0035 11.18a5.299 5.299 0 00-1.647-3.818zM8.27 22.982a2.596 2.596 0 003.686 0l4.294-4.286L12.564 15 8.27 19.286a2.604 2.604 0 000 3.696z" fill="#fff"/><path d="M25.54 12.668l5.175 5.014c.17.164.304.359.396.573a1.714 1.714 0 010 1.352 1.765 1.765 0 01-.396.573 1.81 1.81 0 01-.594.383 1.886 1.886 0 01-1.994-.383L11.266 36.465c-1.431 1.382-3.761 1.382-5.192 0a3.465 3.465 0 010-5.015l12.971-12.527-5.834-5.634a2.636 2.636 0 01-.601-.86 2.561 2.561 0 010-2.036c.139-.322.343-.615.6-.86 1.065-1.046 2.808-1.046 3.89.018l5.835 5.634 2.605-2.516z" fill="#fff"/></svg>