<svg width="40" height="40" fill="none" xmlns="http://www.w3.org/2000/svg"><g clip-path="url(#clip0_1_241)" fill="#fff"><path d="M13.911 14.907h-6.3l-.35.673h6.265l-2.738 4.782h-6.01l-.35.674h5.975L7.88 25.44H2.11l1.552-2.983v-1.422h.019v-.673h-.019V15.58h.019v-.673h-.019v-.358h.019v-1.33h4.786l1.766-3.395h6.587l-2.91 5.083zm3.685-5.083l-2.91 5.083h5.47l2.91-5.083h-5.47zm6.246 0l-2.91 5.083h5.89l1.3-2.539 8.84 17.809h3.39L29.766 9.824h-5.924z"/><path d="M26.477 15.58h-5.93l-2.738 4.782h6.217l2.45-4.782zm-2.797 5.455h-6.256l-2.521 4.405h6.52l2.258-4.405zm-2.601 5.078h-6.562l-2.326 4.064h6.805l2.083-4.064zm-9.664 4.064l2.327-4.064h-5.47l-2.327 4.064h5.47zm-6.245 0l2.326-4.064H1.761l-2.114 4.064H5.17zm9.131-14.597h5.47l-2.737 4.782h-5.47L14.3 15.58zm-3.123 5.455L8.657 25.44h5.47l2.521-4.405h-5.47zm13.709 1.437h2.968v2.968h-2.968v-2.968zm0 3.71h2.968v2.968h-2.968v-2.968zm6.677-3.71h-2.967v2.968h2.967v-2.968zm-2.967 3.71h2.967v2.968h-2.967v-2.968z"/></g><defs><clipPath id="clip0_1_241"><path fill="#fff" d="M0 0h40v40H0z"/></clipPath></defs></svg>