<svg width="40" height="40" fill="none" xmlns="http://www.w3.org/2000/svg"><path d="M5 9a1 1 0 011-1h12.082a1 1 0 011 1v4.757a1 1 0 01-1 1H6a1 1 0 01-1-1V9zm0 9.122a1 1 0 011-1h5.96a1 1 0 011 1v4.756a1 1 0 01-1 1H6a1 1 0 01-1-1v-4.756zm9.796 0a1 1 0 011-1h12.082a1 1 0 011 1v4.756a1 1 0 01-1 1H15.796a1 1 0 01-1-1v-4.756zM5 27.243a1 1 0 011-1h12.082a1 1 0 011 1V32a1 1 0 01-1 1H6a1 1 0 01-1-1v-4.757zm15.918 0a1 1 0 011-1H34a1 1 0 011 1V32a1 1 0 01-1 1H21.918a1 1 0 01-1-1v-4.757z" fill="#fff"/></svg>