<svg width="40" height="40" fill="none" xmlns="http://www.w3.org/2000/svg"><path d="M28.68 7.955a3.026 3.026 0 002.25 5.124 3.034 3.034 0 002.125-.93l4.03-4.192a8.554 8.554 0 01-1.475 9.78 8.581 8.581 0 01-9.725 1.87c-2.133-1.588-3.08-2.508-4.376-4.194a8.554 8.554 0 011.476-9.78 8.581 8.581 0 019.725-1.87l-4.03 4.192zM13.616 23.787l4.398 4.17-6.53 6.926a3.035 3.035 0 01-5.219-2.036 3.026 3.026 0 01.844-2.158l6.507-6.902zm5.55-7.484l14.292 13.552a3.558 3.558 0 01.169 4.995 3.57 3.57 0 01-5.082.171L14.253 21.469a3.56 3.56 0 01-.736-4.174L6.882 10.9l-1.23 1.23L2 7.21l2.258-2.494 5.28 3.528-1.22 1.22 6.586 6.349a3.573 3.573 0 014.262.49z" fill="#fff"/></svg>