<svg width="40" height="40" fill="none" xmlns="http://www.w3.org/2000/svg"><path d="M36.295 9.978h-16.82a4.056 4.056 0 100 5.796h16.82a.58.58 0 00.58-.58v-4.636a.58.58 0 00-.58-.58z" fill="#fff"/><path d="M21.66.73H10.228A2.858 2.858 0 007.37 3.586l-.546 32.826a2.858 2.858 0 002.858 2.858h11.432a2.858 2.858 0 002.858-2.858l.546-18.535h-3.82a6.43 6.43 0 11-.001-10.004h3.82V3.587A2.858 2.858 0 0021.66.73zm-6.262 23.537a2.845 2.845 0 011.429 5.313v3.26a.714.714 0 01-.715.715h-1.429a.714.714 0 01-.714-.714V29.58a2.845 2.845 0 011.429-5.313z" fill="#fff"/></svg>