<svg width="150" height="150" fill="none" xmlns="http://www.w3.org/2000/svg"><path d="M66.095 18.414c4.897-4.97 12.913-4.97 17.81 0l6.52 6.62a12.5 12.5 0 009 3.727l9.291-.07c6.976-.052 12.645 5.617 12.593 12.593l-.07 9.292a12.502 12.502 0 003.728 8.998l6.619 6.521c4.97 4.897 4.97 12.913 0 17.81l-6.619 6.52a12.502 12.502 0 00-3.728 9l.07 9.291c.052 6.976-5.617 12.645-12.593 12.593l-9.292-.07a12.502 12.502 0 00-8.998 3.728l-6.521 6.619c-4.897 4.97-12.913 4.97-17.81 0l-6.52-6.619a12.502 12.502 0 00-9-3.728l-9.29.07c-6.977.052-12.646-5.617-12.594-12.593l.07-9.292a12.5 12.5 0 00-3.728-8.998l-6.619-6.521c-4.97-4.897-4.97-12.913 0-17.81l6.62-6.52a12.5 12.5 0 003.727-9l-.07-9.29c-.052-6.977 5.617-12.646 12.593-12.594l9.292.07a12.5 12.5 0 008.998-3.728l6.521-6.619z" fill="#15B2F5" stroke="url(#paint0_linear_806_10369)" stroke-width="4"/><path d="M100 62.5l-27.344 25L56.25 75.735" stroke="#fff" stroke-width="12.5" stroke-linecap="round" stroke-linejoin="round"/><defs><linearGradient id="paint0_linear_806_10369" x1="75" y1="9.375" x2="224.5" y2="297.5" gradientUnits="userSpaceOnUse"><stop stop-color="#fff"/><stop offset="1" stop-color="#13ABEC"/></linearGradient></defs></svg>